<?xml version="1.0" encoding="iso-8859-1"?>
<!-- Generator: Adobe Illustrator 19.0.0, SVG Export Plug-In . SVG Version: 6.00 Build 0)  -->
<svg version="1.1" id="Capa_1" xmlns="http://www.w3.org/2000/svg" xmlns:xlink="http://www.w3.org/1999/xlink" x="0px" y="0px"
	 viewBox="0 0 360.8 360.8" style="enable-background:new 0 0 360.8 360.8;" xml:space="preserve">
<circle style="fill:#F39200;" cx="180.4" cy="180.4" r="174.8"/>
<circle style="fill:#F0D215;" cx="180.4" cy="180.4" r="136"/>
<g>
	<path style="fill:#321D00;" d="M180.4,0C80.8,0,0,80.8,0,180.4s80.8,180.4,180.4,180.4S360.8,280,360.8,180.4S280,0,180.4,0z
		 M180.4,349.6c-93.2,0-169.2-76-169.2-169.2s76-169.2,169.2-169.2s169.2,76,169.2,169.2S273.6,349.6,180.4,349.6z"/>
	<path style="fill:#321D00;" d="M180.4,38.8c-78,0-141.6,63.6-141.6,141.6S102.4,322,180.4,322S322,258.4,322,180.4
		S258.4,38.8,180.4,38.8z M180.4,310.4c-71.6,0-130-58.4-130-130s58.4-130,130-130s130,58.4,130,130S252,310.4,180.4,310.4z"/>
	<path style="fill:#321D00;" d="M246.8,146.4c0-22-17.6-39.6-39.6-39.6h-2v-18c0-3.2-2.4-5.6-5.6-5.6s-5.6,2.4-5.6,5.6v18h-28v-18
		c0-3.2-2.4-5.6-5.6-5.6c-3.2,0-5.6,2.4-5.6,5.6v18h-22.4c-3.2,0-5.6,2.4-5.6,5.6s2.4,5.6,5.6,5.6h22.8v56.4h-5.6
		c-3.2,0-5.6,2.4-5.6,5.6s2.4,5.6,5.6,5.6h5.6V242h-22.8c-3.2,0-5.6,2.4-5.6,5.6s2.4,5.6,5.6,5.6h22.8v18c0,3.2,2.4,5.6,5.6,5.6
		c3.2,0,5.6-2.4,5.6-5.6v-18h28v18c0,3.2,2.4,5.6,5.6,5.6s5.6-2.4,5.6-5.6v-18h2c22,0,39.6-17.6,39.6-39.6c0-14.4-7.6-27.2-19.2-34
		C239.2,173.6,246.8,160.8,246.8,146.4z M235.6,214.4c0,15.6-12.8,28.4-28.4,28.4h-7.6l0,0l0,0H166V186h41.2
		C222.8,186,235.6,198.8,235.6,214.4z M166.4,174.8V118h41.2c15.6,0,28.4,12.8,28.4,28.4c0,15.6-12.8,28.4-28.4,28.4H166.4z"/>
</g>
<g>
</g>
<g>
</g>
<g>
</g>
<g>
</g>
<g>
</g>
<g>
</g>
<g>
</g>
<g>
</g>
<g>
</g>
<g>
</g>
<g>
</g>
<g>
</g>
<g>
</g>
<g>
</g>
<g>
</g>
</svg>
